<svg width="227" height="382" viewBox="0 0 227 382" fill="none" xmlns="http://www.w3.org/2000/svg">
<mask id="path-1-inside-1_31_305" fill="white">
<path fill-rule="evenodd" clip-rule="evenodd" d="M32 0C14.3269 0 0 14.3269 0 32V299C0 316.673 14.3269 331 32 331H38.0803L116.955 381.793L89.6849 331H195C212.673 331 227 316.673 227 299V32C227 14.3269 212.673 0 195 0H32Z"/>
</mask>
<path d="M38.0803 331L38.6217 330.159L38.3744 330H38.0803V331ZM116.955 381.793L116.413 382.634L119.666 384.729L117.836 381.32L116.955 381.793ZM89.6849 331V330H88.013L88.8039 331.473L89.6849 331ZM1 32C1 14.8792 14.8792 1 32 1V-1C13.7746 -1 -1 13.7746 -1 32H1ZM1 299V32H-1V299H1ZM32 330C14.8792 330 1 316.121 1 299H-1C-1 317.225 13.7746 332 32 332V330ZM38.0803 330H32V332H38.0803V330ZM117.496 380.953L38.6217 330.159L37.5388 331.841L116.413 382.634L117.496 380.953ZM88.8039 331.473L116.074 382.267L117.836 381.32L90.566 330.527L88.8039 331.473ZM195 330H89.6849V332H195V330ZM226 299C226 316.121 212.121 330 195 330V332C213.225 332 228 317.225 228 299H226ZM226 32V299H228V32H226ZM195 1C212.121 1 226 14.8792 226 32H228C228 13.7746 213.225 -1 195 -1V1ZM32 1H195V-1H32V1Z" fill="black" mask="url(#path-1-inside-1_31_305)"/>
</svg>
