<svg width="227" height="382" viewBox="0 0 227 382" fill="none" xmlns="http://www.w3.org/2000/svg">
<mask id="path-1-inside-1_31_305" fill="white">
<path fill-rule="evenodd" clip-rule="evenodd" d="M32 0C14.3269 0 0 14.3269 0 32V299C0 316.673 14.3269 331 32 331H148.08L226.955 381.793L199.515 330.684C215.05 328.49 227 315.141 227 299V32C227 14.3269 212.673 0 195 0H32Z"/>
</mask>
<path d="M148.08 331L148.622 330.159L148.374 330H148.08V331ZM226.955 381.793L226.413 382.634L229.666 384.729L227.836 381.32L226.955 381.793ZM199.515 330.684L199.375 329.694L197.956 329.894L198.634 331.157L199.515 330.684ZM1 32C1 14.8792 14.8792 1 32 1V-1C13.7746 -1 -1 13.7746 -1 32H1ZM1 299V32H-1V299H1ZM32 330C14.8792 330 1 316.121 1 299H-1C-1 317.225 13.7746 332 32 332V330ZM148.08 330H32V332H148.08V330ZM227.496 380.953L148.622 330.159L147.539 331.841L226.413 382.634L227.496 380.953ZM198.634 331.157L226.074 382.267L227.836 381.32L200.396 330.211L198.634 331.157ZM226 299C226 314.635 214.424 327.568 199.375 329.694L199.655 331.674C215.676 329.411 228 315.646 228 299H226ZM226 32V299H228V32H226ZM195 1C212.121 1 226 14.8792 226 32H228C228 13.7746 213.225 -1 195 -1V1ZM32 1H195V-1H32V1Z" fill="black" mask="url(#path-1-inside-1_31_305)"/>
</svg>
